<?xml version="1.0" encoding="utf-8"?>
<!-- Generator: Adobe Illustrator 14.0.0, SVG Export Plug-In . SVG Version: 6.00 Build 43363)  -->
<!DOCTYPE svg PUBLIC "-//W3C//DTD SVG 1.1//EN" "http://www.w3.org/Graphics/SVG/1.1/DTD/svg11.dtd">
<svg version="1.1" id="Layer_1" xmlns:svg="http://www.w3.org/2000/svg"
	 xmlns="http://www.w3.org/2000/svg" xmlns:xlink="http://www.w3.org/1999/xlink" x="0px" y="0px" width="1052.359px"
	 height="744.09px" viewBox="0 0 1052.359 744.09" enable-background="new 0 0 1052.359 744.09" xml:space="preserve">
<path fill="#2E2E2E" d="M74.163,559.957h32.425V4.053H74.163V559.957z M141.179,559.957h99.435V4.053h-99.435V559.957
	L141.179,559.957z M273.047,4.053v555.885h99.435V4.053H273.047z"/>
<path fill="#757575" d="M874.231,559.997h32.432V4.052h-32.432V559.997z M941.255,4.052v555.945h32.424V4.052H941.255z
	 M405.987,559.997h32.426V4.053h-32.426V559.997z M473.01,4.053v555.924h32.432V4.053H473.01z"/>
<path fill="#4D4D4D" d="M538.933,559.997h99.449V4.053h-99.449V559.997z M670.801,559.997h34.585V4.053h-34.584L670.801,559.997
	L670.801,559.997z M737.819,4.053v555.924h99.434V4.053H737.819z"/>
<path fill="#484848" d="M924.277,621.19l51.164,115.284h-30.864l-9.489-22.776h-51.576l-8.584,22.776h-30.451l46.462-115.284
	H924.277 M926.587,693.563l-18.568-44.81l-16.916,44.81H926.587 M859.578,621.19v21.125h-41.757v94.159h-28.718v-94.159h-41.757
	V621.19H859.578 M711.036,621.19l51.165,115.284h-30.863l-9.49-22.776h-51.577l-8.582,22.776h-30.451l46.46-115.284H711.036
	 M713.348,693.563l-18.567-44.81l-16.918,44.81H713.348 M517.026,621.19h50.834c19.641,0,35.154,5.392,46.543,16.174
	c11.442,10.729,17.165,24.62,17.165,41.675c0,17.88-5.805,31.937-17.413,42.168c-11.553,10.179-28.057,15.268-49.514,15.268h-47.615
	V621.19 M545.743,642.315v73.034h18.732c12.159,0,21.457-3.329,27.894-9.986c6.437-6.711,9.654-15.541,9.654-26.489
	c0-11.333-3.273-20.246-9.819-26.737c-6.492-6.547-15.845-9.821-28.059-9.821H545.743 M490.453,621.19v115.284h-28.718V621.19
	H490.453 M436.071,621.19l-37.548,54.135l50.917,61.149h-35.98l-45.635-54.053v54.053h-28.718V621.19h28.718v51.906l36.64-51.906
	H436.071 M312.533,621.19v115.284h-28.718V621.19H312.533 M171.089,662.781L135.44,737.96h-12.379L72.392,621.19h30.451
	l27.15,63.708l29.625-63.708h23.107l29.625,63.708l26.985-63.708h30.451l-50.504,116.77h-12.378L171.089,662.781"/>
</svg>
