<?xml version="1.0" encoding="utf-8"?>
<!-- Generator: Adobe Illustrator 14.0.0, SVG Export Plug-In . SVG Version: 6.00 Build 43363)  -->
<!DOCTYPE svg PUBLIC "-//W3C//DTD SVG 1.1//EN" "http://www.w3.org/Graphics/SVG/1.1/DTD/svg11.dtd">
<svg version="1.1" id="Layer_1" xmlns="http://www.w3.org/2000/svg" xmlns:xlink="http://www.w3.org/1999/xlink" x="0px" y="0px"
	 width="460px" height="379px" viewBox="0 0 460 379" enable-background="new 0 0 460 379" xml:space="preserve">
<path fill="#484848" d="M399.696,292.547h11.972l17.601,42.417H418.01l-3.172-7.929h-18.314l-3.171,7.929h-11.337L399.696,292.547z
	 M399.299,319.504h12.685l-6.342-16.332L399.299,319.504z M366.715,293.341h10.386v41.623h-10.386V293.341z M317.465,293.341h15.714
	c8.483,0,14.984,1.743,19.186,5.153c4.281,3.488,6.343,8.642,6.343,15.54v0.078c0,6.897-2.062,12.13-6.104,15.539
	c-4.123,3.489-10.227,5.391-18.394,5.313h-16.744V293.341z M327.708,327.272h6.501c4.599,0,7.929-1.189,10.228-3.329
	c2.3-2.14,3.409-5.392,3.409-9.831c0-4.36-1.269-7.69-3.727-9.831c-2.299-2.22-6.025-3.329-10.94-3.329h-5.471V327.272z
	 M278.839,334.964v-41.623h30.69v7.452h-20.28v8.959h19.043v7.452h-19.043v10.147h20.28v7.612H278.839z M235.267,334.964h-10.402
	v-41.623h9.347l13.05,14.983l12.883-14.983h9.347v41.623h-10.409v-25.609l-10.933,12.765h-1.896l-10.988-12.765L235.267,334.964z
	 M204.933,293.341h10.401v41.623h-10.401V293.341z M160.822,334.964v-41.623h10.314v19.741l13.335-19.741h11.638l-14.46,19.899
	l18.868,21.724h-13.224l-16.157-19.899v19.899H160.822z M140.922,293.341h10.385v41.623h-10.385V293.341z M82.888,335.598
	l-18.156-42.257h11.337l9.435,23.31l10.782-23.31h8.086l10.703,23.31l9.435-23.31h11.416l-18.155,42.257h-4.519l-12.923-26.322
	l-13.002,26.322H82.888z"/>
<g>
	<defs>
		<polygon id="SVGID_1_" points="237.296,222.146 237.296,119.081 97.048,-22.595 97.048,290.01 396.889,290.01 396.889,-22.595 
			256.641,119.081 256.641,222.146 		"/>
	</defs>
	<clipPath id="SVGID_2_">
		<use xlink:href="#SVGID_1_"  overflow="visible"/>
	</clipPath>
	<g clip-path="url(#SVGID_2_)">
		<circle fill="#757575" cx="247" cy="136.601" r="82.69"/>
		<circle fill="none" stroke="#4D4D4D" stroke-width="46" cx="247" cy="136.602" r="119.318"/>
	</g>
</g>
<text transform="matrix(1 0 0 1 119.802 374.4453)" fill="#666666" font-family="'Arial-BoldMT'" font-size="34.8838">DEUTSCHLAND</text>
<circle fill="#2E2E2E" cx="247" cy="47.014" r="45.428"/>
</svg>
